<svg xmlns="http://www.w3.org/2000/svg" width="46.734" height="50.538" viewBox="0 0 46.734 50.538">
  <path id="Icon_map-search" data-name="Icon map-search" d="M35.637,31.7a21.048,21.048,0,0,0,2.674-10.311c0-11.018-8.245-19.94-18.436-19.945S1.44,10.367,1.44,21.383,9.695,41.311,19.882,41.311a17.306,17.306,0,0,0,9.534-2.893l12.54,13.559,6.219-6.728ZM19.88,33.718C13.579,33.7,8.485,28.2,8.474,21.4,8.482,14.587,13.584,9.07,19.88,9.059c6.3.018,11.394,5.524,11.407,12.337C31.274,28.188,26.176,33.7,19.88,33.718Z" transform="translate(-1.44 -1.44)"/>
</svg>
