<svg id="Main_logo" data-name="Main logo" xmlns="http://www.w3.org/2000/svg" xmlns:xlink="http://www.w3.org/1999/xlink" width="1765" height="1164.681" viewBox="0 0 1765 1164.681">
  <defs>
    <linearGradient id="linear-gradient" x1="0.099" y1="0.407" x2="-0.048" y2="0.477" gradientUnits="objectBoundingBox">
      <stop offset="0" stop-color="#fff"/>
      <stop offset="1" stop-color="#b5b5b5"/>
    </linearGradient>
    <linearGradient id="linear-gradient-2" x1="0.524" y1="0.226" x2="1" gradientUnits="objectBoundingBox">
      <stop offset="0" stop-color="#fff"/>
      <stop offset="1" stop-color="#bebebe"/>
    </linearGradient>
    <clipPath id="clip-path">
      <rect id="Rectangle_1405" data-name="Rectangle 1405" width="1620.885" height="983.858" fill="none"/>
    </clipPath>
  </defs>
  <path id="Path_1486" data-name="Path 1486" d="M161.307,0H1603.693C1692.781,0,1765,77.184,1765,172.4V992.279c0,95.212-72.219,172.4-161.307,172.4H0s.519,3.033,0-127.3V172.4C0,77.184,72.22,0,161.307,0Z" transform="translate(0 0)" fill="url(#linear-gradient)"/>
  <rect id="Rectangle_122" data-name="Rectangle 122" width="59" height="1155" transform="translate(1706)" fill="url(#linear-gradient-2)"/>
  <g id="Artwork_4" data-name="Artwork 4" transform="translate(822.18 496.981)">
    <g id="Group_266" data-name="Group 266" transform="translate(-810.442 -491.929)" clip-path="url(#clip-path)">
      <path id="Path_18270" data-name="Path 18270" d="M578.164,859.511c25.629,7.348,52.691,2.151,79.037,2.151,22.223,0,22.223-23.837,28.138-40.863,14.159,14.517,19.894,38.174,41.58,38.533l125.1-4.481c20.252.717,22.94-20.073,26.883-35.307,1.075-5.377,3.405-7.706,9.14-8.6,25.808-3.764,49.465-7.527,75.094-14.338-6.99,21.865-18.639,54.3,15.592,54.125,26.166-1.434,52.691,1.075,77.961-7.348,24.553,6.81,51.437,2.151,76.707,2.151s24.2-22.94,30.826-41.221c15.055,15.055,21.148,39.429,44.447,38.533,28.676-4.481,87.46,4.66,107.892-10.574,13.442-10.932,27.242-21.327,42.3-32.977-7.527,18.281-3.226,38.712,19.535,37.816,41.042-1.434,82.263-2.509,123.3-4.481a33.873,33.873,0,0,0,17.026-6.094c48.39-33.335,44.089-34.411,59.86-88.177,8.6-21.327,4.3-33.156-8.424-50.72,10.753-9.857,26.7-18.281,32.081-32.8,6.273-20.431,11.829-41.221,17.564-61.832s-14.875-31.722-23.3-46.777a24.553,24.553,0,0,0-22.761-11.291c-39.25,1.613-78.679,3.226-117.928,4.122-13.621.358-23.478,3.943-27.958,19.356-5.377-14.7-15.055-18.46-28.138-17.385-21.148,3.943-59.681-5.735-74.556,10.216-9.857-10.216-21.686-7.707-32.618-6.273-22.044,2.688-45.7-5.556-65.954,9.32,50.72-149.65,29.034-286.4-70.255-412.569C1127.3,301.055,880.691,129.361,852.195,293.17c15.055-1.971,50.541,5.2,58.606-5.018,165.6-157,354.5,135.133,145.349,220.981-53.408,18.639-101.619,6.094-142.3-33.335a18.1,18.1,0,0,0-13.979-5.914c-35.486.179-70.972.359-106.458-.179a24.553,24.553,0,0,0-19.356,7.886c-86.385,91.941-253.062,8.961-230.838-115.24,10.395-109.5,155.923-158.791,231.2-78.5,16.847,17.026,43.372,6.273,64.7,9.32,20.073-118.466,146.783-84.772,232.272-89.79,38.354-.179,66.671-25.629,72.047-63.445,1.075-7.169-.179-12.187-5.556-17.385C983.744-39.466,710.609-41.438,556.12,120.579,432.994,240.837,407.545,432.425,478.875,586.735l-31.9,25.27c-13.083-13.442-20.252-38.712-41.938-37.816-30.468,1.255-60.756,1.971-91.224,3.405a29.571,29.571,0,0,0-14.7,5.2c-16.13,11.291-31.543,23.3-47.852,35.307-12.9-12.545-20.79-37.816-41.759-37.278-33.694,4.839-93.375-7.169-116.853,15.951-12.366,12.008-31.543,19.714-37.457,36.741C36.734,696.6,19.17,759.505,1.248,822.592c-6.631,20.431,15.055,34.052,24.195,50,5.018,6.99,11.649,9.857,20.073,9.5,30.468-.9,60.756-1.434,91.224-3.047,19.356-1.971,33.156-17.384,48.211-28.676,2.33,21.507,7.886,26.346,29.392,25.987,24.733-.717,49.645.358,73.66-6.631,19.535,4.839,41.221,4.122,61.294,2.33,12.366-1.075,26.166,2.867,34.052-7.707,20.073,8.065,38.174,6.094,58.785,4.66,13.8-.9,28.138,2.151,37.637-5.2,34.052,4.839,65.954,5.018,98.572-4.122" transform="translate(0.006 0.038)" fill="#fff"/>
      <path id="Path_18271" data-name="Path 18271" d="M707.557,255.119C707.02,125,508.8,126.079,508.8,255.836s198.936,129.757,198.757-.717" transform="translate(403.082 125.19)" fill="#fff"/>
      <path id="Path_18272" data-name="Path 18272" d="M521.758,255.826c0-130.832-198.04-129.757-198.757-.538s198.22,131.011,198.757.538" transform="translate(255.887 125.201)" fill="#fff"/>
      <path id="Path_18273" data-name="Path 18273" d="M221.39,376.012c1.971,15.055,5.2,40.146,8.6,65.237.717,6.094,3.584,10.574,10.395,9.14S247.2,444.3,246.3,438.56C221.57,309.7,253.65,180.66,336.63,78.862c3.226-4.3,2.868-9.32-1.613-11.47s-7.348.179-11.112,1.075c-70.793,86.027-103.77,186.391-102.694,307.545" transform="translate(175.228 52.687)" fill="#fff"/>
      <path id="Path_18274" data-name="Path 18274" d="M806.834,247.842C767.048,140.309,692.491,55.9,590.513,4.1c-3.4.358-8.244,1.613-9.319,4.122a11.829,11.829,0,0,0,8.424,13.621q135.313,74.019,195.71,216.142c2.331,11.112,12.546,24.016,21.507,9.857" transform="translate(460.265 3.248)" fill="#fff"/>
      <path id="Path_18275" data-name="Path 18275" d="M675.193,506.418c-55.02-25.091-77.781,79.037-10.932,45.523-1.971,22.94-21.507,31.722-42.834,17.743l-7.528,7.885c55.38,34.231,63.8-36.2,73.3-74.019l-2.33-2.151-9.679,5.2" transform="translate(486.345 397.22)" fill="#fff"/>
      <path id="Path_18276" data-name="Path 18276" d="M690.1,556.123c16.309,8.065,11.829-29.392,23.837-40.5,3.942-5.018,10.573-8.961,16.308-4.48,7.886,12.366-2.151,30.109-4.3,43.909h9.32c6.451-15.234,6.094-52.87,30.289-45.881,11.47,5.2-3.047,33.515-3.584,44.089l2.151,1.971c12.9-3.763,12.545-28.317,15.95-39.966,3.047-23.657-22.94-17.026-35.127-7.527-7.886-10.216-13.8-10.395-30.289-1.434-4.481-3.4-8.961-5.735-11.829-.358-4.3,16.31-8.424,32.8-12.545,50" transform="translate(546.711 395.367)" fill="#fff"/>
      <path id="Path_18277" data-name="Path 18277" d="M222.547,500.8c-6.452-2.509-9.5-.9-11.112,5.736-6.094,26.525-13.262,52.871-19.535,79.216,15.413,9.14,12.725-29.392,21.507-37.995,4.3-6.811,13.8-10.216,19.356-7.169,11.828,5.735-2.689,33.156-3.226,44.089l1.792,1.971c2.868-1.613,7.348-2.509,8.065-4.66a346.917,346.917,0,0,0,9.5-36.2c3.226-22.045-22.582-14.159-34.948-9.32l8.782-35.665" transform="translate(152.027 395.853)" fill="#fff"/>
      <path id="Path_18278" data-name="Path 18278" d="M788.045,538.307c-8.065,8.423-17.564,6.99-27.6,4.839-2.151-.538-3.047-6.272-4.479-9.678,12.9-8.065,32.259,1.254,44.268-7.169,4.48-13.441.538-28.137-16.13-28.5s-36.92,15.772-38.533,35.128c-2.867,27.959,34.052,27.062,47.853,10.215l-5.377-5.018" transform="translate(590.531 394.365)" fill="#fff"/>
      <path id="Path_18279" data-name="Path 18279" d="M238.1,550.479l2.151-3.047c13.8-1.433,31.185,3.585,43.372-3.046,14.876-45.7-57.351-32.081-54.483,10.395,1.792,25.091,34.948,21.149,47.852,6.273l-5.914-5.377c-11.112,12.187-28.317,11.829-32.977-5.376" transform="translate(181.461 408.717)" fill="#fff"/>
      <path id="Path_18280" data-name="Path 18280" d="M530.882,547.517c-11.47,11.829-27.779,12.008-32.977-5.556l2.151-3.047c13.8-1.434,31.005,3.584,43.371-3.047,7.169-10.036-.9-26.883-12.9-28.675-30.11-7.348-63.086,48.928-24.195,56.992,10.932.538,24.195-2.509,29.75-12.545l-5.2-4.3" transform="translate(387.093 401.285)" fill="#fff"/>
      <path id="Path_18281" data-name="Path 18281" d="M444.094,549.462c-11.111,10.932-30.467,14.338-32.8-4.839,13.441-6.81,31.722,1.613,44.268-6.273,14.517-44.805-55.38-32.618-54.663,8.961.179,26.526,34.769,23.658,48.39,7.348l-5.2-5.2" transform="translate(317.599 403.999)" fill="#fff"/>
      <path id="Path_18282" data-name="Path 18282" d="M563.785,562.172c29.93,2.688,56.635-52.691,17.385-57.172-31.005-4.3-60.578,54.3-17.385,57.172" transform="translate(429.463 399.893)" fill="#fff"/>
      <path id="Path_18283" data-name="Path 18283" d="M9.6,508.66v5.377c87.1-1.434,174.025-2.509,261.127-4.839V504L9.6,508.66" transform="translate(7.605 399.279)" fill="#fff"/>
      <path id="Path_18284" data-name="Path 18284" d="M671.441,513.36c13.621-1.254,22.94-9.678,28.5,5.556-6.094,5.018-13.442,4.481-20.611,5.735-34.231,8.6-30.827,47.852,12.545,27.421,10.216,15.951,15.054-28.138,17.922-34.052,4.659-23.479-29.034-19.535-40.863-8.424l2.33,3.763" transform="translate(519.848 396.73)" fill="#fff"/>
      <path id="Path_18285" data-name="Path 18285" d="M170.206,583.833c7.707,1.971,10.753.18,12.187-6.273,3.405-15.413,7.527-30.647,11.291-45.881,3.764-34.949,32.618-6.81,32.26-27.779H164.292L162.5,513.937h25.091l-17.205,70.076" transform="translate(128.736 399.2)" fill="#fff"/>
      <path id="Path_18286" data-name="Path 18286" d="M339.566,514.747c-23.836-6.631-1.793,47.852-42.476,45.344-5.2-15.235,1.075-29.035,4.3-44.089h-9.678c-6.273,27.421-24.374,70.614,23.3,49.465,5.376,4.3,9.857,3.943,12.366-1.792,4.3-16.13,8.244-32.26,12.366-48.748" transform="translate(224.266 407.35)" fill="#fff"/>
      <path id="Path_18287" data-name="Path 18287" d="M316.6,568.2c16.488,6.631,10.932-20.253,17.2-28.676s13.621-21.148,25.45-14.876c8.244,12.008-5.2,30.109-3.764,43.193h8.424c7.348-29.392,25.629-69.717-24.195-49.286-13.621-18.46-18.639,41.58-22.94,49.645" transform="translate(250.817 406.409)" fill="#fff"/>
      <path id="Path_18288" data-name="Path 18288" d="M456.8,556.738c19.356,25.27,68.284-12.366,32.8-24.195-8.424-.18-16.488-8.782-6.631-13.621,5.377-.538,10.933.359,18.639.9l5.556-4.122c-15.592-23.3-63.8,12.725-28.5,24.374,9.14,1.075,16.668,9.14,5.914,13.979-6.631.538-13.262-.359-19.893-.717V551l-7.528,5.556" transform="translate(361.887 402.458)" fill="#fff"/>
      <path id="Path_18289" data-name="Path 18289" d="M778.4,545.828c11.112,16.488,40.324,8.244,44.446-9.14,1.793-7.17-.716-12.367-8.244-14.338s-22.044-7.527-9.857-14.517c5.2-.717,10.395.179,15.771.538v2.33l8.244-5.914c-15.951-23.3-63.982,12.9-28.5,24.374,9.141,1.075,16.31,9.319,5.556,13.979-6.632.538-13.262-.358-19.894-.9v-2.151l-7.527,5.735" transform="translate(616.665 393.833)" fill="#fff"/>
      <path id="Path_18290" data-name="Path 18290" d="M580.5,573.455c20.969,7.707,9.14-46.956,28.317-46.419,2.33-.179,4.48-3.4,6.81-5.2l-1.614-2.151-10.215-.9c1.254-16.309,10.395-23.657,24.016-30.468-38.175-11.112-23.3,31.006-40.147,31.723-6.273,0-6.273.538-5.914,8.064l9.5,1.255L580.5,573.455" transform="translate(459.884 385.383)" fill="#fff"/>
      <path id="Path_18291" data-name="Path 18291" d="M424.729,512.888,421.5,510.2c-17.384,8.6-19.535,30.109-33.156,43.012l-5.914-39.249H371.5l8.6,55.021c5.018-1.792,10.574-2.15,12.366-4.839,11.291-16.667,21.686-33.873,32.439-51.079" transform="translate(294.31 404.191)" fill="#fff"/>
      <path id="Path_18292" data-name="Path 18292" d="M460.053,515.148l-11.112-4.481L435.5,565.152c22.94,8.423,2.151-46.24,41.221-45.523l3.585-11.829-20.073,7.348" transform="translate(345.012 402.29)" fill="#fff"/>
      <path id="Path_18293" data-name="Path 18293" d="M254.64,320.229c-3.047-9.141-4.839-17.026-8.244-24.2s-14.7-3.047-14.7,5.018c1.434,11.47,10.574,38.891,23.12,19.177" transform="translate(183.558 231.596)" fill="#fff"/>
      <path id="Path_18294" data-name="Path 18294" d="M352.9,565.858c6.451,1.792,9.857,1.254,11.291-5.377,3.4-15.951,7.706-31.722,11.828-48.211-4.659,0-9.14-2.33-10.753,4.481-3.764,16.13-8.065,32.26-12.187,49.107" transform="translate(279.575 405.526)" fill="#fff"/>
      <rect id="Rectangle_1401" data-name="Rectangle 1401" width="34.59" height="9.929" transform="translate(849.333 381.026)" fill="#fff"/>
      <rect id="Rectangle_1402" data-name="Rectangle 1402" width="34.769" height="9.714" transform="translate(808.829 381.205)" fill="#fff"/>
      <path id="Path_18295" data-name="Path 18295" d="M380.022,502.53c-10.215-9.32-10.932-4.839-17.922,2.33,4.122,10.395,9.5,2.151,17.922-2.33" transform="translate(286.863 393.939)" fill="#fff"/>
      <path id="Path_18296" data-name="Path 18296" d="M449.3,223.9Z" transform="translate(355.945 177.378)" fill="#fff"/>
      <path id="Path_18297" data-name="Path 18297" d="M495.2,207h0" transform="translate(392.308 163.99)" fill="#fff"/>
      <path id="Path_18298" data-name="Path 18298" d="M578.173,859.62c-32.618,9.14-64.7,8.961-98.572,4.122-9.5,7.348-23.836,4.3-37.637,5.2-20.611,1.434-38.712,3.584-58.785-4.66-7.707,10.574-21.686,6.631-34.052,7.707-20.073,1.613-41.938,2.509-61.294-2.33-24.195,6.99-48.928,5.914-73.66,6.631-21.507.359-27.063-4.481-29.392-25.987-15.055,11.291-28.855,26.7-48.211,28.676-30.289,1.792-60.756,2.151-91.224,3.047C24.736,883.1,18.463,858.9,5.917,846.9c-6.094-7.348-7.169-15.413-4.66-24.374,17.922-62.907,35.486-125.993,53.767-188.9,6.094-17.026,25.091-24.733,37.457-36.741,23.657-23.3,83.159-11.291,116.853-16.13,21.148-.717,29.034,24.733,41.759,37.278,16.13-12.008,31.722-24.016,47.852-35.307a29.572,29.572,0,0,1,14.7-5.2c30.289-1.434,60.756-2.33,91.224-3.405,21.686-.9,28.855,24.374,41.938,37.816l31.9-25.27c-71.33-154.31-46.06-345.9,77.245-466.157C710.439-41.508,983.574-39.716,1137.7,122.48c5.377,5.2,6.631,10.395,5.556,17.385-5.377,38-33.694,63.265-72.047,63.445-85.31,5.018-212.2-28.676-232.272,89.79-21.327-3.047-47.673,7.707-64.7-9.32-75.273-80.112-220.8-31.005-231.2,78.678C521,486.48,687.5,569.639,773.884,477.7a24.554,24.554,0,0,1,19.356-7.886c35.486.538,70.972.358,106.458.179a18.1,18.1,0,0,1,13.979,5.914c40.683,39.429,88.894,51.974,142.3,33.335,209.332-85.847,20.611-377.979-145.17-220.981-8.244,10.216-43.551,3.047-58.606,5.018,28.5-163.809,274.927,7.886,303.961-151.443,99.11,125.993,120.975,262.919,70.255,412.569,20.431-14.7,43.909-6.631,65.954-9.32,10.932-1.255,22.761-3.943,32.618,6.273,14.7-16.13,53.408-6.452,74.557-10.216,13.083-1.075,22.761,2.688,28.138,17.385,4.48-15.413,14.517-19.177,27.958-19.356,39.25-.717,78.679-2.509,117.928-4.122a24.553,24.553,0,0,1,22.761,11.291c8.244,15.055,28.855,27.779,23.3,46.777s-11.291,41.4-17.564,61.832c-5.377,14.7-21.328,22.94-32.081,32.8,12.546,17.564,17.026,29.213,8.423,50.72-15.592,53.587-11.829,55.2-59.681,88.536A33.7,33.7,0,0,1,1501.7,833.1c-41.042,1.792-82.263,3.047-123.3,4.481-22.582.9-27.063-19.535-19.535-37.816-15.055,11.649-29.034,22.044-42.3,32.977-20.431,15.234-79.216,6.094-107.892,10.574-23.3.9-29.392-23.478-44.447-38.533-6.81,18.281-6.631,42.3-30.826,41.221s-52.154,4.66-76.707-2.151c-25.27,8.423-51.8,5.914-77.962,7.348-34.052.179-22.4-32.26-15.592-54.125-25.629,6.81-49.286,10.574-75.094,14.338-12.9,1.613-9.678,18.46-14.517,27.421s-9.678,15.951-21.507,16.309l-125.1,4.48c-21.686-.358-27.421-24.016-41.58-38.533-5.735,17.026-5.914,40.683-28.138,40.863-26.346,0-53.408,5.2-79.037-2.151M590.36,614.265c-9.14-9.678-14.159-24.912-26.525-29.392-19.894.179-40.683-1.971-59.681,2.868-11.829,3.405-38.533,25.629-44.089,38-20.431,72.047-41.042,144.991-61.115,217.217,20.611,0,40.5.179,60.4-.179,9.14-5.556,9.32-24.912,13.8-34.769q21.507-74.556,43.193-149.113c4.481-13.621,20.431-6.81,32.26-9.14L493.939,839.727c20.252,0,38.891-.179,57.71.179,5.735.179,7.527-2.688,8.961-7.527,17.385-62.011,35.307-122.588,53.229-184.957h31.9L591.077,837.038c19.177,3.226,40.325-.717,60.219-.538,1.971-.179,5.018-3.764,5.735-6.273q30.468-107.175,60.4-214.708c1.075-12.008-11.291-20.969-17.564-30.288-13.621-10.216-33.694-1.792-49.824-3.943-25.45-1.792-39.608,20.073-59.5,32.8m782.125,197.5c41.042.717,82.084-2.33,123.3-3.226,15.951-4.3,27.779-19.356,41.221-28.676,13.621-17.385,14.338-42.655,21.686-63.265.9-14.338-13.442-24.016-20.61-35.844,25.808-18.818,44.985-37.1,51.974-69.717,6.452-22.044,5.914-38.891-11.112-54.842-3.764-3.584-6.631-5.556-12.008-5.377-36.92,1.434-73.839,3.047-110.759,3.584-8.961.179-11.291,3.584-13.442,11.112-23.12,82.263-47.315,163.809-70.255,246.251M300.379,846.358c18.46,0,36.382-.358,54.125.179,7.707.179,10.753-2.33,12.725-9.678,17.385-62.728,34.052-125.814,53.408-187.825,8.961-23.3,2.151-54.842-24.553-59.143-32.26,5.018-78.32-7.348-103.411,15.592-9.678,8.961-24.553,15.234-28.855,28.676-20.611,71.868-40.863,144.274-60.756,216.321h63.624c6.273-19.894,11.112-39.25,17.385-59.143,5.735-12.546,22.044-5.2,33.694-6.99l-17.385,62.19m671.9-22.224h56.993c6.094,0,8.423-3.226,10.036-8.782,7.527-26.883,15.592-53.767,23.657-80.471,4.3-12.725,20.61-6.273,32.26-8.782l-25.987,94.629c19.177,0,37.637-.358,56.1.179,6.631.179,8.961-2.33,10.753-8.6,23.12-82.263,47.673-165.422,70.614-247.506-19,0-37.458.358-55.917-.179-6.273-.179-8.6,1.971-10.395,7.707-7.886,27.421-16.13,54.663-24.554,82.084-4.839,12.546-20.61,5.018-31.722,6.99l25.629-93.2c-19.535,0-38,.179-56.455-.179-5.735-.179-8.065,1.792-9.678,7.527-23.478,82.8-47.673,165.78-71.33,248.4m-48.39-251.269c-38.174-.358-75.99,2.509-113.985,3.047-10.036.359-19,2.509-26.525,10.036-9.857,10.395-25.987,16.309-31.005,30.647-15.413,52.87-29.034,106.279-46.06,158.432-8.782,23.657-3.047,50.541,21.507,58.426,41.042-.358,81.367-2.509,122.588-3.764l18.46-65.058L773.884,767.5l8.065-30.468,97.318-3.584,18.46-64.879L800.588,671.8c6.273-12.008,3.226-33.156,21.148-31.722,24.733-.179,49.465-1.075,74.2-2.151,3.584-.179,9.5-1.792,10.216-4.122,6.273-19.714,11.649-39.787,17.743-61.115m382.1-11.47h-59.143c-5.914,0-6.452,4.3-7.527,8.244l-59.5,211.482c-2.867,10.395,17.743,36.92,28.676,36.74l41.938-1.255c15.234-.538,31.722,2.509,45.164-2.33s36.023-22.94,44.089-37.1c20.79-73.3,43.73-146.066,63.086-219.726-14.158-.179-25.808.179-39.429.538-24.553.358-24.553.358-31.364,24.2q-23.12,80.65-46.418,161.121c-5.2,13.8-21.865,5.914-33.873,7.707l54.125-189.438M204.854,727.175h-75.99c-8.244.538-9.14,24.374-13.083,32.439h14.338c-8.423,34.052-2.151,31.005-37.816,30.468L126.713,663.91h31.722l-8.6,28.138c19.714,0,39.07.179,58.247-.358,2.509,0,6.094-4.122,6.99-6.99,5.377-17.205,10.216-34.769,15.234-52.154,2.509-8.961-17.743-35.665-27.063-35.665-29.572,2.33-62.19-1.792-90.507,4.481-15.055,7.706-34.411,21.327-42.476,37.278-15.234,53.229-28.676,107-45.881,159.508-7.169,22.224-5.018,38.712,11.649,53.767,12.366,10.933,65.237.538,85.31,3.047,34.231-3.584,61.652-32.8,67.208-66.133,4.122-21.148,10.933-41.759,16.309-61.652" transform="translate(-0.003 -0.071)" fill="#f08118"/>
      <path id="Path_18299" data-name="Path 18299" d="M707.558,255.119c.18,130.473-197.861,130.473-198.757.717S707.021,125,707.558,255.119M601.817,282.54c.358-29.93-44.806-29.751-44.806-.179s45.523,29.93,44.806.179m57.531-.359c-.18-29.93-44.448-28.855-44.985,0s45.523,30.288,44.985,0m-57.531-53.766c.538-30.288-44.985-29.751-44.806-.179s45.7,29.213,44.806.179m57.531.179c.538-30.288-44.806-29.751-44.985-.358s45.881,29.751,44.985.358" transform="translate(403.081 125.19)" fill="#f08118"/>
      <path id="Path_18300" data-name="Path 18300" d="M521.757,255.885C521.22,386.359,323.179,385.1,323,255.347s198.757-130.115,198.757.538m-42.834,2.151c-.358-18.1,3.226-18.639-16.847-17.564-27.062,1.434-22.582,1.075-22.94-23.3-.358-17.205,2.689-16.309-16.309-16.309s-17.385-1.254-17.743,17.743c-.358,24.553,4.122,22.223-22.4,22.4-19.894.179-17.026-1.792-17.205,17.205s-2.33,16.668,16.847,16.668c22.581,0,22.581,0,22.581,22.582,0,17.205,0,17.205,17.564,17.205s16.668,1.613,16.668-17.026c0-22.761,0-22.761,22.582-22.761,19.356,0,16.668,1.075,16.847-16.847" transform="translate(255.888 125.141)" fill="#f08118"/>
      <path id="Path_18301" data-name="Path 18301" d="M221.315,375.873c-1.254-121.154,31.9-221.518,102.694-307.545,3.585-.9,8.244-2.509,11.112-1.075s4.839,7.169,1.613,11.47c-82.98,101.8-115.24,230.838-90.328,359.7.9,5.914.358,10.574-5.915,11.829s-9.678-3.047-10.395-9.14c-3.405-25.091-6.631-50.182-8.6-65.237" transform="translate(175.303 52.827)" fill="#fc8719"/>
      <path id="Path_18302" data-name="Path 18302" d="M806.909,247.842c-4.123,6.81-10.574,8.065-16.13,2.33C750.454,148.374,680.2,69.516,583.419,18.259c-4.839-7.886-2.867-13.621,6.99-14.159C692.387,55.9,766.942,140.309,806.73,247.842" transform="translate(460.191 3.248)" fill="#fc8719"/>
      <path id="Path_18303" data-name="Path 18303" d="M675.193,506.5l9.679-5.2,2.33,2.151c-9.5,37.816-17.922,108.25-73.3,74.018l7.528-7.885c21.327,13.979,41.041,5.2,42.834-17.743-66.85,33.514-44.089-70.434,10.932-45.523m-27.421,42.834c19.894,2.33,36.024-36.92,9.5-38-18.818-1.613-37.457,37.278-9.5,38" transform="translate(486.345 397.14)" fill="#f08118"/>
      <path id="Path_18304" data-name="Path 18304" d="M690.178,556.005c4.3-17.205,8.245-33.694,12.546-50,2.867-5.556,7.347-3.226,11.828.358,16.489-8.961,22.4-8.782,30.289,1.434,12.187-9.5,38.175-15.951,35.127,7.706-3.406,11.829-2.868,36.2-15.951,39.966l-2.151-1.971c.538-10.574,15.055-38.712,3.584-44.089-24.195-6.99-23.836,30.467-30.289,45.881h-9.319c2.151-13.8,12.187-31.543,4.3-43.909-5.735-4.481-12.366-.538-16.309,4.481-12.009,11.111-7.528,48.39-23.836,40.5" transform="translate(546.632 395.485)" fill="#f08118"/>
      <path id="Path_18305" data-name="Path 18305" d="M222.626,500.81l-8.782,35.666c12.366-5.019,38.174-12.725,34.948,9.319a346.911,346.911,0,0,1-9.5,36.2c-.717,2.151-5.377,3.226-8.065,4.66l-1.792-1.971c.717-10.932,15.234-38.353,3.226-44.088-5.556-3.047-15.055.358-19.356,7.169-8.782,8.782-6.094,47.135-21.507,37.995,6.273-26.525,13.442-52.871,19.535-79.216,1.613-6.811,4.66-8.244,11.112-5.736" transform="translate(151.948 395.837)" fill="#f08118"/>
      <path id="Path_18306" data-name="Path 18306" d="M788.045,538.227l5.377,5.018C779.8,560.092,742.7,560.989,745.569,533.03c1.613-19.535,19.356-35.486,38.532-35.127s20.611,15.055,16.13,28.5c-12.008,8.424-31.364-1.075-44.269,7.169,1.435,3.405,2.331,8.961,4.481,9.678,10.036,1.972,19.535,3.405,27.6-4.839m3.226-17.026c3.584-25.45-29.751-15.772-31.364,1.434l31.364-1.434" transform="translate(590.531 394.444)" fill="#fc8719"/>
      <path id="Path_18307" data-name="Path 18307" d="M238.1,550.433c4.66,17.2,22.044,17.563,32.977,5.376l5.914,5.377c-12.9,15.055-46.06,18.819-47.852-6.273-2.867-42.475,69.359-56.275,54.483-10.395-12.187,6.452-29.571,1.613-43.372,3.046l-2.151,3.047m36.561-11.47c3.584-25.449-29.751-15.772-31.364,1.434l31.364-1.434" transform="translate(181.461 408.763)" fill="#f08118"/>
      <path id="Path_18308" data-name="Path 18308" d="M530.882,547.438l5.2,4.3c-5.556,10.216-18.818,13.083-29.751,12.545-38.892-8.065-5.915-64.341,24.194-56.992,12.008,1.613,19.894,18.46,12.9,28.675-12.367,6.452-29.572,1.613-43.372,3.047l-2.151,3.047c5.2,17.564,21.507,17.385,32.977,5.556m3.226-17.026c5.377-24.732-27.779-16.847-31.005,0Z" transform="translate(387.093 401.364)" fill="#f08118"/>
      <path id="Path_18309" data-name="Path 18309" d="M444.092,549.535l5.2,5.2c-13.621,16.309-48.211,19.177-48.39-7.347,0-20.432,19.356-38.712,39.788-37.458,13.442.9,22.224,17.205,14.876,28.675-12.546,7.886-30.826-.538-44.268,6.273,2.33,19.177,21.686,15.771,32.8,4.839m2.509-16.13c5.018-23.836-27.6-17.743-31.722,0Z" transform="translate(317.601 403.926)" fill="#f08118"/>
      <path id="Path_18310" data-name="Path 18310" d="M563.785,562.171C520.593,559.3,550.165,500.7,581.17,505c39.25,4.48,12.545,60.039-17.385,57.172M590.131,528.3c-1.075-27.063-38.174-10.753-37.277,10.395,1.075,26.7,38.711,10.753,37.277-10.395" transform="translate(429.463 399.893)" fill="#f08118"/>
      <path id="Path_18311" data-name="Path 18311" d="M9.679,508.66,270.627,504v5.2C183.525,511.528,96.6,512.6,9.5,514.036Z" transform="translate(7.526 399.279)" fill="#f08118"/>
      <path id="Path_18312" data-name="Path 18312" d="M671.394,513.36l-2.33-3.763c11.649-11.112,45.522-15.055,40.863,8.423-2.867,5.914-7.707,50.182-17.922,34.052-43.372,20.432-46.956-18.818-12.545-27.421,7.169-1.255,14.7-.717,20.61-5.735-5.735-15.413-15.053-6.81-28.5-5.556m24.553,18.281c-12.187-2.867-29.751.718-28.317,14.7,9.678,10.753,27.42,0,28.317-14.7" transform="translate(519.895 396.73)" fill="#f08118"/>
      <path id="Path_18313" data-name="Path 18313" d="M170.286,583.912l17.205-70.076H162.4l1.792-10.036h61.652c.538,20.969-28.5-6.99-32.26,27.78-3.764,15.234-8.065,30.467-11.291,45.881-1.434,6.631-4.66,8.244-12.187,6.272" transform="translate(128.657 399.121)" fill="#f08118"/>
      <path id="Path_18314" data-name="Path 18314" d="M339.646,514.815c-4.122,16.668-8.065,32.8-12.366,48.749-2.509,5.914-6.99,6.094-12.367,1.792-47.673,21.149-29.572-22.224-23.3-49.464h9.678c-3.047,15.233-9.32,29.034-4.3,44.088,40.683,2.509,18.46-51.795,42.476-45.343" transform="translate(224.187 407.283)" fill="#f08118"/>
      <path id="Path_18315" data-name="Path 18315" d="M316.679,568.231c4.3-8.065,9.5-68.1,22.94-49.645,49.824-20.611,31.543,19.894,24.2,49.286h-8.424c-1.434-13.083,12.008-31.185,3.763-43.193-11.649-6.094-21.327,4.839-25.45,14.875s-.716,35.307-17.2,28.676" transform="translate(250.738 406.379)" fill="#f08118"/>
      <path id="Path_18316" data-name="Path 18316" d="M456.88,556.739l7.527-5.556v2.151c6.632.358,13.263,1.254,19.894.717,10.753-5.018,3.4-12.9-5.736-13.979-35.307-11.649,13.083-47.673,28.5-24.374l-5.556,4.122c-7.706-.538-13.262-1.434-18.638-.9-9.858,4.839-1.613,13.441,6.631,13.621,35.486,11.649-13.621,49.286-32.8,24.195" transform="translate(361.807 402.458)" fill="#f08118"/>
      <path id="Path_18317" data-name="Path 18317" d="M778.4,545.828l7.527-5.735v2.151c6.632.358,13.262,1.433,19.894.9,10.753-4.66,3.584-12.9-5.556-13.979-35.486-11.47,12.545-47.673,28.5-24.374l-8.245,5.915v-2.33c-5.2-.179-10.573-1.075-15.771-.358-12.187,6.99,1.434,14.158,9.857,14.517s10.036,7.169,8.244,14.337c-4.122,17.564-33.156,25.629-44.446,9.141" transform="translate(616.665 393.833)" fill="#fc8719"/>
      <path id="Path_18318" data-name="Path 18318" d="M580.5,573.51l10.932-44.268-9.5-1.255c-.358-7.527-.358-8.065,5.916-8.065,16.846-.538,1.97-42.654,40.145-31.722-13.8,6.81-22.761,14.159-24.016,30.468l10.216.9,1.613,2.151c-2.331,1.792-4.481,5.2-6.81,5.2-19.177-.538-7.528,54.3-28.317,46.419" transform="translate(459.884 385.328)" fill="#f08118"/>
      <path id="Path_18319" data-name="Path 18319" d="M424.808,512.968c-10.753,17.026-21.148,34.231-32.439,51.078-1.792,2.688-7.348,3.047-12.366,4.84l-8.6-55.022h10.933l5.914,39.25C402.047,540.388,404.2,518.7,421.4,510.1Z" transform="translate(294.231 404.112)" fill="#f08118"/>
      <path id="Path_18320" data-name="Path 18320" d="M460.053,515.148l20.252-7.348-3.585,11.829c-39.07-.717-18.281,53.946-41.221,45.523l13.441-54.483,11.112,4.48" transform="translate(345.012 402.29)" fill="#f08118"/>
      <path id="Path_18321" data-name="Path 18321" d="M254.72,320.334c-12.546,19.714-21.686-7.707-23.12-19.177.179-8.065,9.32-12.725,14.7-5.018s5.2,14.875,8.244,24.2" transform="translate(183.478 231.491)" fill="#fc8719"/>
      <path id="Path_18322" data-name="Path 18322" d="M352.979,565.915c4.3-16.667,8.423-32.8,12.187-49.107,1.613-6.99,6.094-4.66,10.753-4.481-4.122,16.489-8.244,32.26-11.829,48.211-1.434,6.632-4.839,7.348-11.291,5.377" transform="translate(279.495 405.469)" fill="#f08118"/>
      <rect id="Rectangle_1403" data-name="Rectangle 1403" width="34.59" height="9.929" transform="translate(849.333 381.026)" fill="#f08118"/>
      <rect id="Rectangle_1404" data-name="Rectangle 1404" width="34.769" height="9.714" transform="translate(808.829 381.205)" fill="#fc8719"/>
      <path id="Path_18323" data-name="Path 18323" d="M380.022,502.53c-8.244,4.48-13.8,12.725-17.922,2.33,6.99-7.169,7.528-11.649,17.922-2.33" transform="translate(286.863 393.939)" fill="#f08118"/>
      <path id="Path_18324" data-name="Path 18324" d="M449.3,223.9h0" transform="translate(355.945 177.378)" fill="#f08118"/>
      <path id="Path_18325" data-name="Path 18325" d="M493.6,207h0" transform="translate(391.04 163.99)" fill="#f08118"/>
      <path id="Path_18326" data-name="Path 18326" d="M414.109,357.645c19.894-12.725,34.052-34.769,59.5-32.8,16.13,2.151,36.2-6.273,49.824,3.943,6.273,9.14,18.818,18.281,17.564,30.289q-29.93,107.354-60.4,214.708c-.717,2.509-3.585,6.273-5.735,6.273-19.894-.179-41.042,3.764-60.218.538L469.31,390.98h-31.9c-17.922,62.369-35.844,122.946-53.229,184.957-1.434,4.839-3.047,7.707-8.961,7.528-18.639-.358-37.457-.179-57.71-.179l54.663-190.334c-11.829,2.33-27.779-4.3-32.26,9.14Q318.225,476.649,296.9,551.205c-4.48,9.857-4.48,29.213-13.8,34.769-19.894.358-39.787.179-60.4.179,20.073-72.227,40.5-144.991,61.115-217.217,5.377-12.366,32.081-34.411,44.089-38,19-4.66,39.608-2.509,59.681-2.689,12.366,4.481,17.385,19.715,26.525,29.393" transform="translate(176.428 256.37)" fill="#fff"/>
      <path id="Path_18327" data-name="Path 18327" d="M765.9,568.152c22.94-82.442,47.136-163.988,70.255-246.251,2.15-7.528,4.48-10.933,13.441-11.112,36.919-.538,73.84-2.151,110.76-3.584,5.376-.179,8.244,1.793,12.007,5.377,17.026,15.951,17.385,32.8,11.113,54.842-6.99,32.618-26.167,50.9-51.974,69.717,6.989,11.829,21.327,21.686,20.611,35.844-7.348,20.611-8.065,45.881-21.686,63.266-13.442,9.32-25.092,24.374-41.222,28.676-41.042.9-82.083,3.943-123.3,3.226M917.522,374.413c-36.919,0-30.825-5.376-39.967,30.468,35.307,1.254,29.93,1.434,39.967-30.468m-28.675,96.063c-35.487-1.254-29.034-1.434-39.429,29.93,36.2-.179,30.826,5.915,39.429-29.93" transform="translate(606.762 243.365)" fill="#fff"/>
      <path id="Path_18328" data-name="Path 18328" d="M210.538,585.646l17.385-62.19c-11.649,1.793-27.959-5.735-33.694,6.99-6.273,19.894-10.933,39.071-17.384,59.143H113.4c19.894-72.047,40.146-144.453,60.756-216.321,4.3-13.441,19-19.714,28.855-28.675,24.912-22.941,71.151-10.4,103.411-15.593,26.7,4.3,33.335,35.844,24.553,59.143-19.356,62.19-36.024,125.1-53.408,187.825-1.971,7.348-5.018,10.036-12.725,9.678-17.743-.538-35.665-.18-54.125-.18m36.2-125.455,16.13-63.624c-10.216,1.613-24.374-4.3-31.005,4.481-5.914,19.535-11.291,39.07-17.026,59.323Z" transform="translate(89.838 260.641)" fill="#fff"/>
      <path id="Path_18329" data-name="Path 18329" d="M542.5,574.439c23.477-82.621,47.852-165.6,71.331-248.4,1.612-5.735,3.943-7.706,9.678-7.527,18.46.358,36.919.179,56.455.179l-25.629,93.2c10.933-1.792,26.885,5.735,31.723-6.99,8.424-27.242,16.667-54.663,24.553-82.084,1.613-5.914,4.122-7.886,10.395-7.706,18.459.538,36.919.179,55.917.179-22.94,82.084-47.494,165.243-70.614,247.506-1.791,6.273-4.122,8.782-10.752,8.6-18.46-.359-36.92-.179-56.1-.179l25.988-94.63c-11.65,2.509-27.959-3.943-32.26,8.782-8.065,26.7-16.13,53.587-23.658,80.471-1.613,5.556-3.763,8.782-10.036,8.782H542.5" transform="translate(429.78 249.624)" fill="#fff"/>
      <path id="Path_18330" data-name="Path 18330" d="M613.387,319.6c-5.914,21.327-11.291,41.4-17.743,61.115-.717,2.33-6.631,3.943-10.216,4.122-24.733,1.075-49.465,1.971-74.2,2.151-17.922-1.434-14.875,19.535-21.148,31.723l97.138-3.226-18.639,65.057-97.318,3.585L463.2,514.594l94.988-2.868L539.906,576.6c-41.221,1.075-81.725,3.226-122.588,3.764-24.553-8.065-30.288-34.769-21.507-58.426,17.205-52.154,30.826-105.562,46.06-158.433,4.839-14.337,20.969-20.252,31.006-30.647,7.707-7.528,16.488-9.678,26.525-10.036,38.174-.538,75.811-3.405,113.985-3.047" transform="translate(310.502 253.194)" fill="#fff"/>
      <path id="Path_18331" data-name="Path 18331" d="M784.514,315,730.388,504.612c12.009-1.793,28.855,5.914,33.873-7.707q23.479-80.471,46.418-161.12c6.811-23.837,6.811-23.837,31.365-24.2,13.621-.359,25.27-.9,39.428-.538-19.534,73.66-42.3,146.424-63.086,219.726-8.064,14.338-29.75,30.468-44.089,37.1s-30.109,1.972-45.163,2.33L687.2,571.462c-10.932.179-31.543-26.346-28.676-36.741l59.5-211.3c1.075-3.943,1.613-8.244,7.527-8.244h59.143" transform="translate(521.479 246.329)" fill="#fff"/>
      <path id="Path_18332" data-name="Path 18332" d="M195.792,463.294c-5.377,19.715-12.187,40.5-16.309,61.652-5.556,33.336-32.977,62.37-67.208,66.133-20.252-2.33-72.943,7.886-85.31-3.047C10.3,572.979,8.146,556.49,15.315,534.267c17.205-52.512,30.647-106.279,46.06-159.508,7.886-15.772,27.6-29.751,42.476-37.278,28.5-6.273,61.115-2.151,90.507-4.481,9.32.179,29.572,26.7,27.063,35.665-5.018,17.384-9.857,34.949-15.234,52.154-.9,2.867-4.481,6.81-6.99,6.989-19.356.538-38.712.359-58.247.359l8.6-28.138h-31.9L83.24,526.2c35.844.717,29.392,3.405,37.816-30.468H106.718c3.764-8.065,4.839-31.9,13.083-32.439h75.99" transform="translate(9.059 263.809)" fill="#fff"/>
      <path id="Path_18333" data-name="Path 18333" d="M580.511,237.343c.718,29.572-45.7,29.034-44.805-.179s45.164-29.751,44.805.179" transform="translate(424.387 170.387)" fill="#fff"/>
      <path id="Path_18334" data-name="Path 18334" d="M612.784,237.134c.538,30.288-45.164,29.392-44.984,0s44.805-29.93,44.984,0" transform="translate(449.822 170.238)" fill="#fff"/>
      <path id="Path_18335" data-name="Path 18335" d="M580.509,207.144c.717,29.213-45.523,28.675-44.805-.179s45.343-30.109,44.805.179" transform="translate(424.389 146.461)" fill="#fff"/>
      <path id="Path_18336" data-name="Path 18336" d="M612.789,207.124c.9,29.392-45.7,28.138-44.985-.358s45.7-29.93,44.985.358" transform="translate(449.819 146.481)" fill="#fff"/>
      <path id="Path_18337" data-name="Path 18337" d="M460.167,238.979c-.179,17.743,2.509,16.847-16.847,16.847-22.582,0-22.582,0-22.582,22.761,0,18.639,1.434,17.026-16.668,17.026s-17.564,0-17.564-17.205c0-22.582,0-22.582-22.581-22.582-19.356,0-17.026,1.254-16.847-16.668s-2.868-17.026,17.205-17.205c26.345-.179,22.044,2.151,22.4-22.4.358-19-2.689-17.743,17.743-17.743s15.951-.9,16.309,16.309c.358,24.374-4.122,24.553,22.941,23.3,19.893-1.075,16.488-.538,16.847,17.564" transform="translate(274.823 144.018)" fill="#fff"/>
      <path id="Path_18338" data-name="Path 18338" d="M639.042,545.017c-27.778-.717-9.14-39.608,9.5-38,26.525,1.075,10.395,40.325-9.5,38" transform="translate(495.074 401.634)" fill="#fff"/>
      <path id="Path_18339" data-name="Path 18339" d="M784.864,517.77,753.5,519.2c1.614-17.206,34.948-26.883,31.365-1.434" transform="translate(596.939 397.875)" fill="#fff"/>
      <path id="Path_18340" data-name="Path 18340" d="M268.364,535.77,237,537.2c1.613-17.205,34.948-26.883,31.364-1.434" transform="translate(187.756 412.135)" fill="#fff"/>
      <path id="Path_18341" data-name="Path 18341" d="M527.705,526.953H496.7c3.226-16.847,36.561-24.733,31.005,0" transform="translate(393.496 405.002)" fill="#fff"/>
      <path id="Path_18342" data-name="Path 18342" d="M440.322,529.928H408.6c4.3-17.742,36.741-23.836,31.722,0" transform="translate(323.702 407.403)" fill="#fff"/>
      <path id="Path_18343" data-name="Path 18343" d="M585.384,524.189c1.435,21.328-36.2,37.278-37.277,10.395-.9-21.328,36.2-37.458,37.277-10.395" transform="translate(434.209 404.002)" fill="#fff"/>
      <path id="Path_18344" data-name="Path 18344" d="M690.953,518.267c-.9,14.7-18.639,25.27-28.317,14.7-1.435-13.8,16.309-17.385,28.317-14.7" transform="translate(524.889 409.925)" fill="#fff"/>
      <path id="Path_18345" data-name="Path 18345" d="M868.166,344.827c-10.036,31.9-4.659,31.723-39.966,30.468,8.961-35.844,3.047-30.468,39.966-30.468" transform="translate(656.117 272.952)" fill="#f08118"/>
      <path id="Path_18346" data-name="Path 18346" d="M851.929,398.475c-8.6,35.845-3.227,29.751-39.429,29.93,10.395-31.364,4.122-31.185,39.429-29.93" transform="translate(643.679 315.366)" fill="#f08118"/>
      <path id="Path_18347" data-name="Path 18347" d="M201.9,430.612H170c5.735-20.073,11.112-39.788,17.026-59.323,6.631-8.782,20.969-2.868,31.006-4.481L201.9,430.433" transform="translate(134.678 290.219)" fill="#fc8719"/>
    </g>
  </g>
</svg>
